# xmcd
#
# Track frame offsets:
#	150
#	13368
#	23701
#	32666
#	45311
#	55324
#	66475
#	77110
#	87689
#	98065
#	111768
#	122482
#
# Disc length: 1883 seconds
#
# Revision: 1
# Processed by: cddbd v1.5.2PL0 Copyright (c) Steve Scherf et al.
# Submitted via: audiograbber 1.83.01
#
DISCID=9b07590c
DTITLE=Rat City Riot - Load Up
DYEAR=2008
DGENRE=Punk
TTITLE0=What's wrong
TTITLE1=Stranglehold
TTITLE2=Second skin
TTITLE3=Revolve and evolve
TTITLE4=A match made in Germany
TTITLE5=Breaking point
TTITLE6=Too much to prove
TTITLE7=Load up
TTITLE8=You're the reason
TTITLE9=Saturday night's alright
TTITLE10=Rat city riot
TTITLE11=Martyrs and saints
EXTD=
EXTT0=
EXTT1=
EXTT2=
EXTT3=
EXTT4=
EXTT5=
EXTT6=
EXTT7=
EXTT8=
EXTT9=
EXTT10=
EXTT11=
PLAYORDER=
